<svg id="Capa_1" enable-background="new 0 0 512 512" height="512" viewBox="0 0 512 512" width="512" xmlns="http://www.w3.org/2000/svg" xmlns:xlink="http://www.w3.org/1999/xlink"><linearGradient id="SVGID_1_" gradientUnits="userSpaceOnUse" x1="233" x2="233" y1="406" y2="91"><stop offset="0" stop-color="#addcff"/><stop offset=".5028" stop-color="#eaf6ff"/><stop offset="1" stop-color="#eaf6ff"/></linearGradient><linearGradient id="SVGID_2_" gradientUnits="userSpaceOnUse" x1="256" x2="256" y1="451" y2="61"><stop offset="0" stop-color="#5558ff"/><stop offset="1" stop-color="#00c0ff"/></linearGradient><g><g><g><path d="m316 106c-82.705 0-150 67.295-150 150s67.295 150 150 150 150-67.295 150-150-67.295-150-150-150zm0 210c-33.076 0-60-26.909-60-60s26.924-60 60-60 60 26.909 60 60-26.924 60-60 60zm-210-165c8.291 0 15-6.709 15-15v-30c0-8.291-6.709-15-15-15s-15 6.709-15 15v30c0 8.291 6.709 15 15 15zm-106 225 136 30v-240l-136 30z" fill="url(#SVGID_1_)"/></g></g><g><g><path d="m316 181c-41.4 0-75 33.6-75 75s33.6 75 75 75 75-33.6 75-75-33.6-75-75-75zm181-120h-271c-3.9 0-7.8 1.5-10.499 4.501l-55.8 55.499h-144.701c-8.401 0-15 6.599-15 15v60h106v180h-106v60c0 8.399 6.599 15 15 15h482c8.401 0 15-6.601 15-15v-360c0-8.401-6.599-15-15-15zm-181 330c-74.399 0-135-60.601-135-135 0-74.401 60.601-135 135-135s135 60.599 135 135c0 74.399-60.601 135-135 135z" fill="url(#SVGID_2_)"/></g></g></g></svg>