<svg id="Capa_1" enable-background="new 0 0 512 512" height="512" viewBox="0 0 512 512" width="512" xmlns="http://www.w3.org/2000/svg" xmlns:xlink="http://www.w3.org/1999/xlink"><linearGradient id="SVGID_1_" gradientUnits="userSpaceOnUse" x1="256" x2="256" y1="512" y2="0"><stop offset="0" stop-color="#addcff"/><stop offset=".5028" stop-color="#eaf6ff"/><stop offset="1" stop-color="#eaf6ff"/></linearGradient><linearGradient id="SVGID_2_" gradientUnits="userSpaceOnUse" x1="256" x2="256" y1="422" y2="91"><stop offset="0" stop-color="#5558ff"/><stop offset="1" stop-color="#00c0ff"/></linearGradient><g><g><g><path d="m225 422h-15l-90-30-90 30h-15c-8.401 0-15 6.599-15 15v60c0 8.399 6.599 15 15 15h210c8.401 0 15-6.601 15-15v-60c0-8.401-6.599-15-15-15zm-180-392h15v76c0 8.291 6.709 15 15 15h90c8.291 0 15-6.709 15-15v-76h15c8.291 0 15-6.709 15-15s-6.709-15-15-15h-150c-8.291 0-15 6.709-15 15s6.709 15 15 15zm272 0h15v76c0 8.291 6.709 15 15 15h90c8.291 0 15-6.709 15-15v-76h15c8.291 0 15-6.709 15-15s-6.709-15-15-15h-150c-8.291 0-15 6.709-15 15s6.709 15 15 15zm-122 151c-8.291 0-15 6.709-15 15v150c0 8.291 6.709 15 15 15h122c8.291 0 15-6.709 15-15v-150c0-8.291-6.709-15-15-15zm302 241h-15l-90-30-90 30h-15c-8.401 0-15 6.599-15 15v60c0 8.399 6.599 15 15 15h210c8.401 0 15-6.601 15-15v-60c0-8.401-6.599-15-15-15z" fill="url(#SVGID_1_)"/></g></g><g><g><path d="m165 91h-90c-24.902 0-45 20.1-45 45v286h180v-286c0-24.9-20.098-45-45-45zm272 0h-90c-24.902 0-45 20.1-45 45v286h180v-286c0-24.9-20.098-45-45-45z" fill="url(#SVGID_2_)"/></g></g></g></svg>