<svg id="Capa_1" enable-background="new 0 0 512 512" height="512" viewBox="0 0 512 512" width="512" xmlns="http://www.w3.org/2000/svg" xmlns:xlink="http://www.w3.org/1999/xlink"><linearGradient id="SVGID_1_" gradientUnits="userSpaceOnUse" x1="256" x2="256" y1="300" y2="0"><stop offset="0" stop-color="#5558ff"/><stop offset="1" stop-color="#00c0ff"/></linearGradient><linearGradient id="SVGID_2_" gradientUnits="userSpaceOnUse" x1="232.431" x2="232.431" y1="512" y2="331.979"><stop offset="0" stop-color="#addcff"/><stop offset=".5028" stop-color="#eaf6ff"/><stop offset="1" stop-color="#eaf6ff"/></linearGradient><g id="Rain_3_"><g><path d="m421 300h-330c-49.629 0-91-40.371-91-90 0-38.643 25.873-72.7 61.586-85.063 5.654-70.43 63.779-124.937 134.414-124.937 35.039 0 68.672 13.989 93.926 38.745 13.183-5.815 26.982-8.745 41.074-8.745 53.174 0 97.266 39.741 104.092 91.099 42.949 6.782 76.908 44.062 76.908 88.901 0 49.629-41.371 90-91 90z" fill="url(#SVGID_1_)"/></g><g><g><path d="m88.715 452.586c-8.086-2.314-16.289 2.344-18.545 10.283l-8.584 30c-2.285 7.969 2.314 16.274 10.283 18.545 7.957 2.285 16.276-2.325 18.545-10.283l8.584-30c2.285-7.969-2.314-16.274-10.283-18.545zm34.277-120.014c-8.086-2.314-16.289 2.358-18.545 10.313l-17.139 60c-2.285 7.969 2.314 16.26 10.283 18.545 8.232 2.277 16.331-2.528 18.545-10.313l17.139-60c2.286-7.969-2.314-16.26-10.283-18.545zm55.723 120.014c-8.115-2.314-16.289 2.344-18.545 10.283l-8.584 30c-2.285 7.969 2.314 16.274 10.283 18.545 7.957 2.285 16.276-2.325 18.545-10.283l8.584-30c2.285-7.969-2.314-16.274-10.283-18.545zm34.277-120.014c-8.057-2.314-16.289 2.358-18.545 10.313l-17.139 60c-2.285 7.969 2.314 16.26 10.283 18.545 8.232 2.277 16.331-2.528 18.545-10.313l17.139-60c2.286-7.969-2.314-16.26-10.283-18.545zm55.723 120.014c-8.086-2.314-16.289 2.344-18.545 10.283l-8.584 30c-2.285 7.969 2.314 16.274 10.283 18.545 7.957 2.285 16.276-2.325 18.545-10.283l8.584-30c2.285-7.969-2.314-16.274-10.283-18.545zm34.277-120.014c-8.115-2.314-16.289 2.358-18.545 10.313l-17.139 60c-2.285 7.969 2.314 16.26 10.283 18.545 8.232 2.277 16.331-2.528 18.545-10.313l17.139-60c2.286-7.969-2.314-16.26-10.283-18.545zm55.723 120.014c-8.057-2.314-16.289 2.344-18.545 10.283l-8.584 30c-2.285 7.969 2.314 16.274 10.283 18.545 7.957 2.285 16.276-2.325 18.545-10.283l8.584-30c2.285-7.969-2.314-16.274-10.283-18.545zm34.277-120.014c-8.086-2.314-16.289 2.358-18.545 10.313l-17.139 60c-2.285 7.969 2.314 16.26 10.283 18.545 8.232 2.277 16.331-2.528 18.545-10.313l17.139-60c2.286-7.969-2.314-16.26-10.283-18.545z" fill="url(#SVGID_2_)"/></g></g></g></svg>